<svg width="20" height="16" viewBox="0 0 20 16" fill="none" xmlns="http://www.w3.org/2000/svg">
    <path d="M20 8.08783L13.0877 14.9887C13.0292 15.0472 12.9357 15.0823 12.8538 15.0823H10.3274C10.2573 15.0823 10.2104 14.9887 10.2689 14.9419L16.2339 8.97677C16.2339 8.97677 16.2339 8.92997 16.2105 8.92997H0.116931C0.0584511 8.92997 0 8.8832 0 8.81302V7.17552C0 7.11704 0.0467551 7.05856 0.116931 7.05856H16.1988C16.1988 7.05856 16.2339 7.02347 16.2222 7.01177L10.2573 1.05832C10.2573 1.05832 10.2456 0.917969 10.3157 0.917969H12.8772C12.9357 0.917969 13.0058 0.941359 13.0408 0.988144L19.9766 7.92408C19.9766 7.92408 20.0234 8.04105 19.9766 8.08783" fill="#F5F0EB"/>
</svg>
